<svg xmlns="http://www.w3.org/2000/svg" viewBox="0 0 48 48" width="48" height="48"><defs><linearGradient id="paper" x1="0" y1="0" x2="1" y2="1"><stop offset="0" stop-color="#ffffff"/><stop offset="1" stop-color="#e2e8f4"/></linearGradient></defs><polygon points="9.00,24.50 31.00,13.50 43.00,33.50 21.00,44.50" fill="#000" fill-opacity="0.3"/><polygon points="6.00,22.00 18.00,40.00 40.00,29.00 40.00,31.00 18.00,42.00 6.00,24.00" fill="#9a9a9a" stroke="#000" stroke-width="1.3" stroke-linejoin="round"/><polygon points="6.00,22.00 22.00,14.00 30.40,14.60 40.00,29.00 18.00,40.00" fill="url(#paper)" stroke="#000" stroke-width="1.3" stroke-linejoin="round"/><polygon points="22.00,14.00 30.40,14.60 24.40,17.60" fill="#c8c8c8" stroke="#000" stroke-width="1.3" stroke-linejoin="round"/><polygon points="6.00,17.00 18.00,35.00 40.00,24.00 40.00,26.00 18.00,37.00 6.00,19.00" fill="#9a9a9a" stroke="#000" stroke-width="1.3" stroke-linejoin="round"/><polygon points="6.00,17.00 22.00,9.00 30.40,9.60 40.00,24.00 18.00,35.00" fill="url(#paper)" stroke="#000" stroke-width="1.3" stroke-linejoin="round"/><polygon points="22.00,9.00 30.40,9.60 24.40,12.60" fill="#c8c8c8" stroke="#000" stroke-width="1.3" stroke-linejoin="round"/><polygon points="6.00,12.00 18.00,30.00 40.00,19.00 40.00,21.00 18.00,32.00 6.00,14.00" fill="#9a9a9a" stroke="#000" stroke-width="1.3" stroke-linejoin="round"/><polygon points="6.00,12.00 22.00,4.00 30.40,4.60 40.00,19.00 18.00,30.00" fill="url(#paper)" stroke="#000" stroke-width="1.3" stroke-linejoin="round"/><polygon points="22.00,4.00 30.40,4.60 24.40,7.60" fill="#c8c8c8" stroke="#000" stroke-width="1.3" stroke-linejoin="round"/><line x1="12.60" y1="15.90" x2="24.60" y2="9.90" stroke="#3a64c8" stroke-width="1.1" stroke-linecap="round"/><line x1="14.16" y1="18.24" x2="30.16" y2="10.24" stroke="#3a64c8" stroke-width="1.1" stroke-linecap="round"/><line x1="15.72" y1="20.58" x2="31.72" y2="12.58" stroke="#3a64c8" stroke-width="1.1" stroke-linecap="round"/><line x1="17.28" y1="22.92" x2="33.28" y2="14.92" stroke="#3a64c8" stroke-width="1.1" stroke-linecap="round"/><line x1="18.84" y1="25.26" x2="34.84" y2="17.26" stroke="#3a64c8" stroke-width="1.1" stroke-linecap="round"/></svg>
